<svg width="375" height="273" viewBox="0 0 375 273" fill="none" xmlns="http://www.w3.org/2000/svg">
<path d="M3.63936 -248.727C157.312 -145.551 229.003 -37.1002 265.802 47.012C296.475 117.136 290.445 141.903 327.075 197.119C406.567 316.938 584.354 425.5 695.357 360.351C750.037 328.257 744.233 271.748 787.306 176.175C826.056 90.2007 903.237 -23.0066 1074.14 -127.687" stroke="#9393BE" stroke-opacity="0.2" stroke-width="0.903173" stroke-miterlimit="10"/>
<path d="M-0.635106 -226.797C150.455 -134.114 222.357 -31.1475 260.117 48.271C291.885 115.111 290.6 138.889 330.268 193.931C413.484 309.395 580.161 412.716 690.097 353.27C746.724 322.653 746.77 268.323 793.549 173.838C834.734 90.6551 912.51 -20.2125 1080.7 -124.202" stroke="#9393BE" stroke-opacity="0.2" stroke-width="0.903173" stroke-miterlimit="10"/>
<path d="M-4.90818 -204.87C143.596 -122.677 215.774 -25.1595 254.443 49.5319C287.384 113.162 290.675 135.862 333.471 190.744C420.161 301.915 576.224 400.145 684.852 346.194C743.536 317.046 749.228 264.935 799.804 171.507C843.329 91.1172 921.793 -17.4068 1087.28 -120.698" stroke="#9393BE" stroke-opacity="0.2" stroke-width="0.903173" stroke-miterlimit="10"/>
<path d="M-9.18283 -182.94C136.735 -111.238 209.274 -19.1321 248.763 50.8107C282.928 111.283 290.658 132.838 336.686 187.556C426.615 294.514 572.523 387.8 679.613 339.117C740.458 311.462 751.6 261.573 806.068 169.175C851.81 91.5742 931.085 -14.5994 1093.85 -117.206" stroke="#9393BE" stroke-opacity="0.2" stroke-width="0.903173" stroke-miterlimit="10"/>
<path d="M-13.4551 -161.013C129.893 -99.8036 202.878 -13.0825 243.093 52.0566C278.542 109.469 290.585 129.83 339.872 184.366C432.826 287.192 569.003 375.683 674.348 332.035C737.463 305.887 753.854 258.212 812.307 166.837C860.174 92.0128 940.356 -11.7998 1100.4 -113.702" stroke="#9393BE" stroke-opacity="0.2" stroke-width="0.903173" stroke-miterlimit="10"/>
<path d="M-17.7284 -139.086C123.022 -88.3695 196.592 -7.00656 237.418 53.3175C274.24 107.727 290.393 126.841 343.075 181.176C438.858 279.974 565.683 363.801 669.097 324.959C734.576 300.362 756.003 254.847 818.559 164.503C868.45 92.4295 949.636 -8.99486 1106.97 -110.225" stroke="#9393BE" stroke-opacity="0.2" stroke-width="0.903173" stroke-miterlimit="10"/>
<path d="M-22.0023 -117.159C116.165 -76.9479 190.446 -0.932572 231.743 54.5785C270.033 106.049 290.139 123.891 346.274 177.989C444.723 272.861 562.521 352.155 663.846 317.88C731.774 294.9 758.088 251.469 824.81 162.171C876.633 92.8145 958.928 -6.18716 1113.54 -106.73" stroke="#9393BE" stroke-opacity="0.2" stroke-width="0.903173" stroke-miterlimit="10"/>
<path d="M-26.2647 -95.2267C109.315 -65.4967 184.464 5.14105 226.08 55.8418C265.953 104.423 289.835 120.992 349.485 174.804C450.448 265.86 559.512 340.741 658.607 310.803C729.066 289.518 760.068 248.063 831.075 159.839C884.723 93.1638 968.194 -3.37573 1120.11 -103.238" stroke="#9393BE" stroke-opacity="0.2" stroke-width="0.903173" stroke-miterlimit="10"/>
<path d="M-30.55 -73.3023C102.444 -54.0625 178.63 11.1763 220.392 57.1032C261.99 102.834 289.415 118.158 352.677 171.612C456.032 258.969 556.6 329.549 653.344 303.724C726.412 284.226 761.931 244.6 837.315 157.501C892.738 93.4686 977.477 -0.58278 1126.69 -99.7426" stroke="#9393BE" stroke-opacity="0.2" stroke-width="0.903173" stroke-miterlimit="10"/>
<path d="M-34.8216 -51.3846C95.589 -42.6344 172.99 17.1479 214.719 58.3549C258.158 101.248 288.963 115.349 355.878 168.415C461.504 252.177 553.778 318.56 648.095 296.635C723.815 279.035 763.718 241.073 843.569 155.158C900.679 93.7137 986.763 2.2137 1133.25 -96.2632" stroke="#9393BE" stroke-opacity="0.2" stroke-width="0.903173" stroke-miterlimit="10"/>
<path d="M-39.0969 -29.4454C88.7434 -31.1853 167.534 23.0574 209.046 59.6257C254.495 99.6655 288.452 112.644 359.08 165.235C466.895 245.517 551.028 307.798 642.842 289.568C721.273 273.995 765.413 237.493 849.821 152.832C908.549 93.9249 996.042 5.02796 1139.81 -92.7556" stroke="#9393BE" stroke-opacity="0.2" stroke-width="0.903173" stroke-miterlimit="10"/>
<path d="M-43.3701 -7.51841C81.8698 -19.7547 162.265 28.8449 203.371 60.8867C250.997 98.0137 287.904 110.011 362.28 162.048C472.217 238.956 548.332 297.218 637.592 282.489C718.77 269.095 767.032 233.823 856.073 150.501C916.369 94.0718 1005.32 7.83013 1146.38 -89.2667" stroke="#9393BE" stroke-opacity="0.2" stroke-width="0.903173" stroke-miterlimit="10"/>
<path d="M-47.6442 14.4114C75.0102 -8.31815 157.165 34.4907 197.696 62.1505C247.667 96.2518 287.287 107.448 365.482 158.861C477.484 232.501 545.659 286.82 632.344 275.41C716.282 264.361 768.577 230.066 862.325 148.166C924.141 94.1609 1014.6 10.635 1152.95 -85.7746" stroke="#9393BE" stroke-opacity="0.2" stroke-width="0.903173" stroke-miterlimit="10"/>
<path d="M-51.9183 36.3382C68.1532 3.11911 152.215 39.9725 192.02 63.4113C244.504 94.3163 286.644 104.972 368.676 155.669C482.703 226.14 542.993 276.572 627.086 268.333C713.821 259.818 770.049 226.204 868.571 145.83C931.878 94.189 1023.89 13.4308 1159.52 -82.2739" stroke="#9393BE" stroke-opacity="0.2" stroke-width="0.903173" stroke-miterlimit="10"/>
<path d="M-56.1917 58.2651C61.2944 14.5528 147.382 45.2666 186.333 64.6696C241.475 92.1339 285.96 102.576 371.872 152.481C487.899 219.878 540.308 266.507 621.829 261.252C711.344 255.481 771.467 222.239 874.819 143.485C939.573 94.1451 1033.16 16.2309 1166.08 -78.8023" stroke="#9393BE" stroke-opacity="0.2" stroke-width="0.903173" stroke-miterlimit="10"/>
<path d="M-60.4658 80.1948C54.4501 25.9924 142.622 50.3611 180.671 65.9329C238.586 89.6359 285.273 100.27 375.084 149.293C493.082 213.718 537.614 256.573 616.59 254.178C708.864 251.374 772.849 218.178 881.081 141.164C947.274 94.064 1042.45 19.0474 1172.66 -75.2961" stroke="#9393BE" stroke-opacity="0.2" stroke-width="0.903173" stroke-miterlimit="10"/>
<path d="M-64.7241 102.125C47.5907 37.4291 136.004 66.2929 175.01 67.2C238.811 68.6805 284.57 98.0533 378.302 146.11C498.273 207.627 534.862 246.766 611.339 247.099C706.33 247.521 774.187 213.978 887.333 138.83C954.946 93.9204 1051.73 21.8525 1179.22 -71.7916" stroke="#9393BE" stroke-opacity="0.2" stroke-width="0.903173" stroke-miterlimit="10"/>
<path d="M-69.0117 124.049C40.7201 48.8635 132.066 69.1631 169.321 68.4579C234.618 67.2236 283.821 95.912 381.487 142.919C503.457 201.635 532.029 237.077 606.089 240.019C703.735 243.918 775.493 209.677 893.588 136.489C962.621 93.7107 1061.01 24.6486 1185.8 -68.3179" stroke="#9393BE" stroke-opacity="0.2" stroke-width="0.903173" stroke-miterlimit="10"/>
<path d="M-73.2862 145.979C33.8608 60.2971 127.782 71.5968 163.646 69.7188C230.592 66.2163 283.073 93.8597 384.687 139.745C508.648 195.704 529.116 227.477 600.834 232.958C701.049 240.616 776.776 205.272 899.835 134.175C970.287 93.4741 1070.29 27.4694 1192.36 -64.8044" stroke="#9393BE" stroke-opacity="0.2" stroke-width="0.903173" stroke-miterlimit="10"/>
<path d="M-77.56 167.906C27.0011 71.7337 123.019 68.8177 157.974 70.9803C226.82 75.2615 282.328 91.887 387.89 136.552C513.867 189.84 526.102 217.947 595.588 225.873C698.255 237.575 778.053 200.715 906.097 131.827C977.978 93.1509 1079.58 30.2666 1198.93 -61.3272" stroke="#9393BE" stroke-opacity="0.2" stroke-width="0.903173" stroke-miterlimit="10"/>
<path d="M-81.8331 189.832C20.142 83.1701 117.713 73.0693 152.295 72.2433C223.396 70.5471 281.573 89.994 391.088 133.361C519.098 184.041 522.96 208.487 590.334 218.793C695.318 234.855 779.321 196.085 912.341 129.5C985.666 92.7952 1088.85 33.0761 1205.5 -57.8267" stroke="#9393BE" stroke-opacity="0.2" stroke-width="0.903173" stroke-miterlimit="10"/>
<path d="M-86.1076 211.762C13.2852 94.6074 112.117 77.2666 146.62 73.5042C219.629 65.5332 280.823 88.1785 394.291 130.168C524.364 178.3 519.689 199.07 585.087 211.711C692.221 232.409 780.593 191.324 918.597 127.163C993.376 92.4 1098.14 35.8721 1212.07 -54.3403" stroke="#9393BE" stroke-opacity="0.2" stroke-width="0.903173" stroke-miterlimit="10"/>
</svg>
